<svg xmlns:svg="http://www.w3.org/2000/svg" xmlns="http://www.w3.org/2000/svg" version="1.1">

	<text x="414.965485" y="0.000000" fill="red">@</text>
	<text x="414.965485" y="0.000000" fill="red">@</text>
	<text x="414.965485" y="0.000000" fill="red">@</text>
	<text x="414.965485" y="0.000000" fill="red">@</text>
	<text x="414.965485" y="0.000000" fill="red">@</text>
	<text x="414.965485" y="0.000000" fill="red">@</text>
	<text x="414.965485" y="0.000000" fill="red">@</text>
	<text x="414.965485" y="0.000000" fill="red">@</text>
	<text x="414.965485" y="0.000000" fill="red">@</text>
	<text x="414.965485" y="0.000000" fill="red">@</text>
	<text x="414.965485" y="0.000000" fill="red">@</text>
	<text x="414.965485" y="0.000000" fill="red">@</text>
	<text x="414.965485" y="0.000000" fill="red">@</text>
	<text x="414.965485" y="0.000000" fill="red">@</text>
	<text x="414.965485" y="0.000000" fill="red">@</text>
	<text x="414.965485" y="0.000000" fill="red">@</text>
	<text x="414.965485" y="0.000000" fill="red">@</text>
	<text x="414.965485" y="0.000000" fill="red">@</text>
	<text x="414.965485" y="0.000000" fill="red">@</text>
	<text x="414.965485" y="0.000000" fill="red">@</text>
	<text x="414.965485" y="0.000000" fill="red">@</text>
	<text x="414.965485" y="0.000000" fill="red">@</text>
	<text x="414.965485" y="0.000000" fill="red">@</text>
	<text x="414.965485" y="0.000000" fill="red">@</text>
	<text x="414.965485" y="0.000000" fill="red">@</text>
	<text x="18.644942" y="47.905802" fill="grey">*</text>
	<text x="158.086017" y="32.422626" fill="grey">*</text>
	<text x="349.965495" y="46.596044" fill="grey">*</text>
	<text x="230.064538" y="81.877768" fill="grey">*</text>
	<text x="54.043385" y="139.775212" fill="grey">*</text>
	<text x="9999.000000" y="9999.000000" fill="grey">*</text>
	<text x="9999.000000" y="9999.000000" fill="grey">*</text>
	<text x="107.090097" y="173.788858" fill="grey">*</text>
	<rect x="364.965485" y="183.788864" width="50.000000" height="50.000000" fill="transparent" stroke="red"/>
	<circle cx="54.043385" cy="139.775212" r="2.500000" fill="red" stroke="red"/>
	<text x="18.644942" y="47.905802" fill="black" stroke="black">{+]</text>
	<rect x="158.086017" y="32.422626" width="10.000000" height="5.000000" fill="#FFCC00" stroke="gray"/>
	<rect x="349.965495" y="46.596044" width="15.000000" height="15.000000" fill="#800080" stroke="gray"/>
	<rect x="230.064538" y="81.877768" width="5.000000" height="15.000000" fill="#338000" stroke="gray"/>
	<circle cx="54.043385" cy="139.775212" r="2.500000" fill="brown" stroke="#FF6600"/>
	<line x1="217.596477" y1="107.443596" x2="245.877943" y2="117.451527" stroke="#000080"/>
	<line x1="217.596477" y1="107.443596" x2="245.877943" y2="117.451527" stroke="#000080"/>
	<rect x="107.090097" y="173.788858" width="15.000000" height="10.000000" fill="#8800AA" stroke="gray"/>
</svg>