<svg>

	<text x="82.937896" y="15.080325" fill="black" stroke="black">{+]</text>
	<text x="74.728941" y="57.711820" fill="black" stroke="black">{+]</text>
	<text x="35.751171" y="83.592704" fill="black" stroke="black">{+]</text>
	<text x="16.427387" y="59.517364" fill="black" stroke="black">{+]</text>
	<text x="15.981947" y="19.828592" fill="black" stroke="black">{+]</text>
	<text x="10.613502" y="71.848595" fill="black" stroke="black">{+]</text>
	<text x="16.187748" y="57.823966" fill="black" stroke="black">{+]</text>
	<text x="24.145501" y="78.699287" fill="black" stroke="black">{+]</text>
	<circle cx="22.912312" cy="156.821366" r="2.500000" fill="brown" stroke="#FF6600"/>
	<circle cx="35.069301" cy="144.520990" r="2.500000" fill="brown" stroke="#FF6600"/>
	<text x="42.192514" y="75.253552" fill="black" stroke="black">{+]</text>
	<circle cx="70.546050" cy="161.081741" r="2.500000" fill="brown" stroke="#FF6600"/>
	<circle cx="40.298396" cy="122.079356" r="2.500000" fill="brown" stroke="#FF6600"/>
	<circle cx="64.371451" cy="139.597537" r="2.500000" fill="brown" stroke="#FF6600"/>
	<circle cx="47.930394" cy="136.050475" r="2.500000" fill="brown" stroke="#FF6600"/>
	<circle cx="48.939720" cy="166.992294" r="2.500000" fill="brown" stroke="#FF6600"/>
	<circle cx="59.007161" cy="142.296636" r="2.500000" fill="brown" stroke="#FF6600"/>
	<text x="79.590002" y="24.069372" fill="black" stroke="black">{+]</text>
	<circle cx="77.058175" cy="110.858817" r="2.500000" fill="brown" stroke="#FF6600"/>
	<rect x="203.270197" y="13.564621" width="5.000000" height="15.000000" fill="#338000" stroke="gray"/>
	<rect x="168.648711" y="38.659582" width="10.000000" height="5.000000" fill="#FFCC00" stroke="gray"/>
	<rect x="127.040531" y="63.393740" width="10.000000" height="5.000000" fill="#FFCC00" stroke="gray"/>
	<rect x="123.797419" y="78.937601" width="10.000000" height="5.000000" fill="#FFCC00" stroke="gray"/>
	<rect x="116.560161" y="58.011227" width="10.000000" height="5.000000" fill="#FFCC00" stroke="gray"/>
	<circle cx="84.696085" cy="146.226680" r="2.500000" fill="brown" stroke="#FF6600"/>
	<rect x="120.230522" y="111.766328" width="15.000000" height="10.000000" fill="#8800AA" stroke="gray"/>
	<rect x="120.771918" y="129.082737" width="15.000000" height="10.000000" fill="#8800AA" stroke="gray"/>
	<rect x="123.003494" y="117.434916" width="15.000000" height="10.000000" fill="#8800AA" stroke="gray"/>
	<rect x="122.762624" y="174.872374" width="15.000000" height="10.000000" fill="#8800AA" stroke="gray"/>
	<rect x="126.431306" y="61.297851" width="10.000000" height="5.000000" fill="#FFCC00" stroke="gray"/>
	<rect x="128.240172" y="35.509278" width="10.000000" height="5.000000" fill="#FFCC00" stroke="gray"/>
	<rect x="132.996845" y="23.920565" width="10.000000" height="5.000000" fill="#FFCC00" stroke="gray"/>
	<rect x="167.238669" y="61.965448" width="10.000000" height="5.000000" fill="#FFCC00" stroke="gray"/>
	<rect x="146.782707" y="69.521516" width="10.000000" height="5.000000" fill="#FFCC00" stroke="gray"/>
	<rect x="140.752811" y="135.684237" width="15.000000" height="10.000000" fill="#8800AA" stroke="gray"/>
	<rect x="134.555572" y="146.860590" width="15.000000" height="10.000000" fill="#8800AA" stroke="gray"/>
	<rect x="131.790385" y="162.286124" width="15.000000" height="10.000000" fill="#8800AA" stroke="gray"/>
	<rect x="138.349191" y="130.703835" width="15.000000" height="10.000000" fill="#8800AA" stroke="gray"/>
	<rect x="154.807683" y="145.143898" width="15.000000" height="10.000000" fill="#8800AA" stroke="gray"/>
	<rect x="238.003832" y="36.504015" width="5.000000" height="15.000000" fill="#338000" stroke="gray"/>
	<rect x="318.124725" y="33.977369" width="15.000000" height="15.000000" fill="#800080" stroke="gray"/>
	<rect x="335.089420" y="24.065108" width="15.000000" height="15.000000" fill="#800080" stroke="gray"/>
	<rect x="325.648688" y="35.349731" width="15.000000" height="15.000000" fill="#800080" stroke="gray"/>
	<rect x="170.169584" y="72.393922" width="10.000000" height="5.000000" fill="#FFCC00" stroke="gray"/>
	<rect x="215.402179" y="69.229429" width="5.000000" height="15.000000" fill="#338000" stroke="gray"/>
	<rect x="212.531047" y="68.781197" width="5.000000" height="15.000000" fill="#338000" stroke="gray"/>
	<rect x="219.209909" y="39.626225" width="5.000000" height="15.000000" fill="#338000" stroke="gray"/>
	<rect x="304.120826" y="38.963629" width="15.000000" height="15.000000" fill="#800080" stroke="gray"/>
	<rect x="239.417500" y="57.465416" width="5.000000" height="15.000000" fill="#338000" stroke="gray"/>
	<rect x="227.965387" y="47.093911" width="5.000000" height="15.000000" fill="#338000" stroke="gray"/>
	<rect x="233.320720" y="65.752666" width="5.000000" height="15.000000" fill="#338000" stroke="gray"/>
	<rect x="311.887020" y="53.327352" width="15.000000" height="15.000000" fill="#800080" stroke="gray"/>
	<rect x="248.660467" y="62.871489" width="5.000000" height="15.000000" fill="#338000" stroke="gray"/>
	<rect x="258.800926" y="74.030868" width="5.000000" height="15.000000" fill="#338000" stroke="gray"/>
	<rect x="170.868277" y="162.462870" width="15.000000" height="10.000000" fill="#8800AA" stroke="gray"/>
	<line x1="205.639510" y1="145.248746" x2="220.153059" y2="171.504352" stroke="#000080"/>
	<line x1="244.954759" y1="136.261750" x2="268.635504" y2="154.679738" stroke="#000080"/>
	<line x1="232.243367" y1="108.611700" x2="257.803363" y2="124.317960" stroke="#000080"/>
	<line x1="210.465380" y1="111.452319" x2="235.924938" y2="127.320869" stroke="#000080"/>
	<line x1="224.461864" y1="137.186008" x2="245.544348" y2="158.529130" stroke="#000080"/>
	<line x1="222.446365" y1="145.786517" x2="252.422660" y2="146.978883" stroke="#000080"/>
	<line x1="212.654649" y1="115.724141" x2="220.355537" y2="144.718905" stroke="#000080"/>
	<line x1="212.654649" y1="115.724141" x2="220.355537" y2="144.718905" stroke="#000080"/>
	<line x1="234.673924" y1="165.097534" x2="262.894699" y2="175.275347" stroke="#000080"/>
	<line x1="248.327788" y1="167.925895" x2="268.013408" y2="190.563836" stroke="#000080"/>
	<rect x="303.786258" y="78.521049" width="15.000000" height="15.000000" fill="#800080" stroke="gray"/>
	<line x1="260.764894" y1="166.563143" x2="290.601997" y2="169.685213" stroke="#000080"/>
	<rect x="307.873089" y="74.677647" width="15.000000" height="15.000000" fill="#800080" stroke="gray"/>
	<rect x="327.737709" y="77.134532" width="15.000000" height="15.000000" fill="#800080" stroke="gray"/>
	<rect x="341.667987" y="81.443938" width="15.000000" height="15.000000" fill="#800080" stroke="gray"/>
	<rect x="331.460994" y="82.606216" width="15.000000" height="15.000000" fill="#800080" stroke="gray"/>
</svg>