<svg xmlns:svg="http://www.w3.org/2000/svg" xmlns="http://www.w3.org/2000/svg" version="1.1">

	<text x="55.000000" y="47.500000" fill="red">*</text>
	<text x="54.240766" y="156.241064" fill="grey">*</text>
	<text x="54.206116" y="157.440962" fill="grey">*</text>
	<text x="55.000000" y="47.500000" fill="red">*</text>
	<text x="55.000000" y="47.500000" fill="red">*</text>
	<text x="55.000000" y="47.500000" fill="red">*</text>
	<text x="55.000000" y="47.500000" fill="red">*</text>
	<text x="180.287078" y="52.468850" fill="grey">*</text>
	<text x="55.288239" y="157.204721" fill="grey">*</text>
	<text x="55.369319" y="157.245523" fill="grey">*</text>
	<text x="55.739815" y="157.527331" fill="grey">*</text>
	<text x="180.258985" y="160.197869" fill="grey">*</text>
	<text x="181.588106" y="48.215075" fill="grey">*</text>
	<text x="180.915348" y="48.846118" fill="grey">*</text>
	<text x="307.285023" y="47.684018" fill="grey">*</text>
	<text x="309.912969" y="48.109817" fill="grey">*</text>
	<text x="182.095845" y="51.052973" fill="grey">*</text>
	<text x="181.828187" y="51.586892" fill="grey">*</text>
	<text x="305.049475" y="50.175268" fill="grey">*</text>
	<text x="307.135729" y="50.525701" fill="grey">*</text>
	<text x="432.018480" y="50.184502" fill="grey">*</text>
	<text x="431.037838" y="50.670736" fill="grey">*</text>
	<text x="434.837671" y="52.416300" fill="grey">*</text>
	<text x="432.180716" y="51.287349" fill="grey">*</text>
	<text x="431.895532" y="51.514471" fill="grey">*</text>
	<text x="308.977186" y="52.494555" fill="grey">*</text>
	<text x="180.816863" y="160.606984" fill="grey">*</text>
	<text x="183.862277" y="160.198926" fill="grey">*</text>
	<text x="182.381406" y="160.179445" fill="grey">*</text>
	<text x="9999.000000" y="9999.000000" fill="grey">*</text>
	<text x="9999.000000" y="9999.000000" fill="grey">*</text>
	<text x="9999.000000" y="9999.000000" fill="grey">*</text>
	<text x="9999.000000" y="9999.000000" fill="grey">*</text>
	<text x="9999.000000" y="9999.000000" fill="grey">*</text>
	<text x="182.082997" y="162.254439" fill="grey">*</text>
	<text x="999999.000000" y="9999999.000000" fill="none" stroke="none">none</text>
	<circle cx="54.240766" cy="156.241064" r="2.500000" fill="brown" stroke="#FF6600"/>
	<circle cx="54.206116" cy="157.440962" r="2.500000" fill="brown" stroke="#FF6600"/>
	<text x="999999.000000" y="9999999.000000" fill="none" stroke="none">none</text>
	<text x="999999.000000" y="9999999.000000" fill="none" stroke="none">none</text>
	<text x="999999.000000" y="9999999.000000" fill="none" stroke="none">none</text>
	<text x="999999.000000" y="9999999.000000" fill="none" stroke="none">none</text>
	<rect x="180.287078" y="52.468850" width="10.000000" height="5.000000" fill="#FFCC00" stroke="gray"/>
	<circle cx="55.288239" cy="157.204721" r="2.500000" fill="brown" stroke="#FF6600"/>
	<circle cx="55.369319" cy="157.245523" r="2.500000" fill="brown" stroke="#FF6600"/>
	<circle cx="55.739815" cy="157.527331" r="2.500000" fill="brown" stroke="#FF6600"/>
	<rect x="180.258985" y="160.197869" width="15.000000" height="10.000000" fill="#8800AA" stroke="gray"/>
	<rect x="181.588106" y="48.215075" width="10.000000" height="5.000000" fill="#FFCC00" stroke="gray"/>
	<rect x="180.915348" y="48.846118" width="10.000000" height="5.000000" fill="#FFCC00" stroke="gray"/>
	<rect x="307.285023" y="47.684018" width="5.000000" height="15.000000" fill="#338000" stroke="gray"/>
	<rect x="309.912969" y="48.109817" width="5.000000" height="15.000000" fill="#338000" stroke="gray"/>
	<rect x="182.095845" y="51.052973" width="10.000000" height="5.000000" fill="#FFCC00" stroke="gray"/>
	<rect x="181.828187" y="51.586892" width="10.000000" height="5.000000" fill="#FFCC00" stroke="gray"/>
	<rect x="305.049475" y="50.175268" width="5.000000" height="15.000000" fill="#338000" stroke="gray"/>
	<rect x="307.135729" y="50.525701" width="5.000000" height="15.000000" fill="#338000" stroke="gray"/>
	<rect x="432.018480" y="50.184502" width="15.000000" height="15.000000" fill="#800080" stroke="gray"/>
	<rect x="431.037838" y="50.670736" width="15.000000" height="15.000000" fill="#800080" stroke="gray"/>
	<rect x="434.837671" y="52.416300" width="15.000000" height="15.000000" fill="#800080" stroke="gray"/>
	<rect x="432.180716" y="51.287349" width="15.000000" height="15.000000" fill="#800080" stroke="gray"/>
	<rect x="431.895532" y="51.514471" width="15.000000" height="15.000000" fill="#800080" stroke="gray"/>
	<rect x="308.977186" y="52.494555" width="5.000000" height="15.000000" fill="#338000" stroke="gray"/>
	<rect x="180.816863" y="160.606984" width="15.000000" height="10.000000" fill="#8800AA" stroke="gray"/>
	<rect x="183.862277" y="160.198926" width="15.000000" height="10.000000" fill="#8800AA" stroke="gray"/>
	<rect x="182.381406" y="160.179445" width="15.000000" height="10.000000" fill="#8800AA" stroke="gray"/>
	<line x1="305.000000" y1="157.500000" x2="316.265863" y2="185.304322" stroke="#000080"/>
	<line x1="305.000000" y1="157.500000" x2="329.314085" y2="175.073425" stroke="#000080"/>
	<line x1="305.000000" y1="157.500000" x2="310.735007" y2="186.946726" stroke="#000080"/>
	<line x1="305.000000" y1="157.500000" x2="324.215278" y2="180.538514" stroke="#000080"/>
	<line x1="305.000000" y1="157.500000" x2="313.130120" y2="186.377347" stroke="#000080"/>
	<rect x="182.082997" y="162.254439" width="15.000000" height="10.000000" fill="#8800AA" stroke="gray"/>
</svg>