<svg xmlns:svg="http://www.w3.org/2000/svg" xmlns="http://www.w3.org/2000/svg" version="1.1">

	<rect x="10.000000" y="10.000000" width="-490.000000" height="-486.000000" fill="transparent" stroke="red"/>
	<circle cx="70.000000" cy="170.000000" r="2.500000" fill="red" stroke="red"/>
	<circle cx="110.000000" cy="140.000000" r="2.500000" fill="red" stroke="red"/>
	<circle cx="70.000000" cy="370.000000" r="2.500000" fill="red" stroke="red"/>
	<circle cx="310.000000" cy="199.000000" r="2.500000" fill="red" stroke="red"/>
	<rect x="255.000000" y="253.000000" width="-490.000000" height="-486.000000" fill="transparent" stroke="red"/>
	<circle cx="70.000000" cy="170.000000" r="2.500000" fill="red" stroke="red"/>
	<circle cx="110.000000" cy="140.000000" r="2.500000" fill="red" stroke="red"/>
	<circle cx="70.000000" cy="370.000000" r="2.500000" fill="red" stroke="red"/>
	<circle cx="310.000000" cy="199.000000" r="2.500000" fill="red" stroke="red"/>
	<text x="10.000000" y="10.000000" fill="black" stroke="black">[+}</text>
	<text x="500.000000" y="21.000000" fill="black" stroke="black">{+]</text>
	<text x="13.000000" y="496.000000" fill="black" stroke="black">[+}</text>
	<text x="493.150000" y="490.000000" fill="black" stroke="black">{+]</text>
	<line x1="50.000000" y1="50.000000" x2="71.213203" y2="71.213203" stroke="#000080"/>
	<line x1="300.000000" y1="150.000000" x2="315.000000" y2="175.980762" stroke="#000080"/>
	<line x1="250.000000" y1="350.000000" x2="279.885841" y2="352.614672" stroke="#000080"/>
	<circle cx="70.000000" cy="170.000000" r="2.500000" fill="brown" stroke="#FF6600"/>
	<circle cx="110.000000" cy="140.000000" r="2.500000" fill="brown" stroke="#FF6600"/>
	<rect x="90.000000" y="150.000000" width="10.000000" height="5.000000" fill="#FFCC00" stroke="gray"/>
	<rect x="283.000000" y="133.333000" width="5.000000" height="15.000000" fill="#338000" stroke="gray"/>
	<circle cx="70.000000" cy="370.000000" r="2.500000" fill="brown" stroke="#FF6600"/>
	<circle cx="310.000000" cy="199.000000" r="2.500000" fill="brown" stroke="#FF6600"/>
	<rect x="100.000000" y="250.000000" width="15.000000" height="5.000000" fill="#338000" stroke="gray"/>
	<rect x="250.000000" y="260.666660" width="10.000000" height="15.000000" fill="#8800AA" stroke="gray"/>
	<rect x="450.000000" y="250.000000" width="5.000000" height="10.000000" fill="#FFCC00" stroke="gray"/>
	<rect x="400.333300" y="400.666600" width="15.000000" height="15.000000" fill="#800080" stroke="gray"/>
</svg>