<svg>
	<text x="60.609493" y="14.639953" fill="black" stroke="black">{+]</text>
	<line x1="210.027969" y1="182.171146" x2="239.691865" y2="186.649236" stroke="#000080"/>
	<line x1="443.520319" y1="469.409191" x2="465.132322" y2="490.215952" stroke="#000080"/>
	<line x1="445.095312" y1="293.284171" x2="460.094258" y2="319.265542" stroke="#000080"/>
	<line x1="581.499321" y1="440.531500" x2="604.667522" y2="459.590210" stroke="#000080"/>
	<line x1="598.885748" y1="495.269411" x2="628.530690" y2="499.871304" stroke="#000080"/>
	<line x1="278.390573" y1="453.991803" x2="303.340018" y2="470.650890" stroke="#000080"/>
	<line x1="503.213046" y1="514.520932" x2="523.936880" y2="536.212467" stroke="#000080"/>
	<line x1="597.713618" y1="190.700944" x2="622.294033" y2="207.899874" stroke="#000080"/>
	<line x1="464.555263" y1="421.028269" x2="493.581146" y2="428.611020" stroke="#000080"/>
	<line x1="551.957904" y1="263.787638" x2="577.603500" y2="279.353736" stroke="#000080"/>
	<line x1="415.554356" y1="401.437791" x2="434.629714" y2="424.592288" stroke="#000080"/>
	<line x1="241.871260" y1="492.610260" x2="259.098717" y2="517.170690" stroke="#000080"/>
	<line x1="528.669459" y1="434.220566" x2="558.614314" y2="436.038715" stroke="#000080"/>
	<line x1="327.484196" y1="526.838100" x2="354.160924" y2="540.562246" stroke="#000080"/>
	<line x1="137.366666" y1="519.157048" x2="167.082638" y2="523.275423" stroke="#000080"/>
	<line x1="514.456071" y1="488.800690" x2="528.093623" y2="515.521790" stroke="#000080"/>
	<line x1="186.661826" y1="318.984266" x2="214.278486" y2="330.702632" stroke="#000080"/>
	<line x1="403.455133" y1="164.329772" x2="414.964185" y2="192.034315" stroke="#000080"/>
	<line x1="575.352175" y1="191.552076" x2="588.761751" y2="218.388306" stroke="#000080"/>
	<line x1="533.865343" y1="474.448298" x2="563.787213" y2="476.612008" stroke="#000080"/>
	<line x1="421.066183" y1="595.209309" x2="444.346730" y2="614.130622" stroke="#000080"/>
	<line x1="494.184111" y1="453.968585" x2="519.532686" y2="470.013826" stroke="#000080"/>
	<line x1="387.471066" y1="433.702655" x2="409.790655" y2="453.748502" stroke="#000080"/>
	<line x1="502.733364" y1="369.999564" x2="508.429952" y2="399.453747" stroke="#000080"/>
	<line x1="141.068899" y1="161.372150" x2="160.422145" y2="184.294887" stroke="#000080"/>
	<line x1="141.068899" y1="161.372150" x2="160.422145" y2="184.294887" stroke="#000080"/>
	<text x="135.552574" y="165.021298" fill="black" stroke="black">{+]</text>
	<text x="60.993492" y="162.099775" fill="black" stroke="black">{+]</text>
	<text x="193.521974" y="18.596473" fill="black" stroke="black">{+]</text>
	<text x="83.966829" y="146.861956" fill="black" stroke="black">{+]</text>
	<text x="160.625872" y="69.607739" fill="black" stroke="black">{+]</text>
	<text x="131.773979" y="175.669548" fill="black" stroke="black">{+]</text>
	<text x="51.694187" y="132.463649" fill="black" stroke="black">{+]</text>
	<text x="170.627915" y="43.418108" fill="black" stroke="black">{+]</text>
	<text x="133.963056" y="33.367326" fill="black" stroke="black">{+]</text>
	<text x="116.588578" y="99.082661" fill="black" stroke="black">{+]</text>
	<text x="140.030473" y="41.225701" fill="black" stroke="black">{+]</text>
	<text x="79.674714" y="110.178392" fill="black" stroke="black">{+]</text>
	<text x="113.272994" y="94.771572" fill="black" stroke="black">{+]</text>
	<text x="182.935030" y="221.211915" fill="black" stroke="black">{+]</text>
	<text x="21.709892" y="7.256606" fill="black" stroke="black">{+]</text>
	<text x="192.959991" y="66.967924" fill="black" stroke="black">{+]</text>
	<text x="241.045018" y="134.652382" fill="black" stroke="black">{+]</text>
	<text x="208.777933" y="175.718749" fill="black" stroke="black">{+]</text>
	<text x="175.498847" y="172.762769" fill="black" stroke="black">{+]</text>
	<text x="18.280065" y="64.625268" fill="black" stroke="black">{+]</text>
	<text x="115.712683" y="158.138480" fill="black" stroke="black">{+]</text>
	<text x="245.625744" y="165.075037" fill="black" stroke="black">{+]</text>
	<text x="93.806269" y="16.731903" fill="black" stroke="black">{+]</text>
	<text x="9.968653" y="57.567031" fill="black" stroke="black">{+]</text>
	<rect x="254.669618" y="16.875625" width="10.000000" height="5.000000" fill="#FFCC00" stroke="gray"/>
	<rect x="243.001730" y="313.089746" width="5.000000" height="15.000000" fill="#338000" stroke="gray"/>
	<rect x="11.884287" y="455.093448" width="5.000000" height="15.000000" fill="#338000" stroke="gray"/>
	<rect x="212.066708" y="491.555106" width="5.000000" height="15.000000" fill="#338000" stroke="gray"/>
	<rect x="44.259696" y="456.684763" width="5.000000" height="15.000000" fill="#338000" stroke="gray"/>
	<rect x="246.038747" y="327.644862" width="5.000000" height="15.000000" fill="#338000" stroke="gray"/>
	<rect x="243.529170" y="450.992439" width="15.000000" height="15.000000" fill="#800080" stroke="gray"/>
	<rect x="248.286166" y="482.805503" width="15.000000" height="15.000000" fill="#800080" stroke="gray"/>
	<rect x="296.067976" y="29.902708" width="10.000000" height="5.000000" fill="#FFCC00" stroke="gray"/>
	<rect x="267.677447" y="77.877962" width="10.000000" height="5.000000" fill="#FFCC00" stroke="gray"/>
	<rect x="256.963321" y="182.046016" width="10.000000" height="5.000000" fill="#FFCC00" stroke="gray"/>
	<circle cx="256.421765" cy="361.265259" r="2.500000" fill="brown" stroke="#FF6600"/>
	<circle cx="264.631816" cy="332.574535" r="2.500000" fill="brown" stroke="#FF6600"/>
	<rect x="290.441408" y="116.484367" width="10.000000" height="5.000000" fill="#FFCC00" stroke="gray"/>
	<circle cx="282.822890" cy="187.535551" r="2.500000" fill="brown" stroke="#FF6600"/>
	<circle cx="275.194326" cy="186.271129" r="2.500000" fill="brown" stroke="#FF6600"/>
	<rect x="329.101672" y="232.491211" width="10.000000" height="5.000000" fill="#FFCC00" stroke="gray"/>
	<rect x="316.362032" y="217.303446" width="10.000000" height="5.000000" fill="#FFCC00" stroke="gray"/>
	<rect x="302.729479" y="235.611707" width="10.000000" height="5.000000" fill="#FFCC00" stroke="gray"/>
	<circle cx="296.412220" cy="386.669388" r="2.500000" fill="brown" stroke="#FF6600"/>
	<circle cx="309.065161" cy="540.478608" r="2.500000" fill="brown" stroke="#FF6600"/>
	<rect x="348.395063" y="238.885918" width="10.000000" height="5.000000" fill="#FFCC00" stroke="gray"/>
	<rect x="370.805698" y="244.894507" width="10.000000" height="5.000000" fill="#FFCC00" stroke="gray"/>
	<circle cx="352.984754" cy="524.920093" r="2.500000" fill="brown" stroke="#FF6600"/>
	<circle cx="379.188231" cy="346.976924" r="2.500000" fill="brown" stroke="#FF6600"/>
	<circle cx="371.610747" cy="252.310561" r="2.500000" fill="brown" stroke="#FF6600"/>
	<circle cx="374.594250" cy="512.424334" r="2.500000" fill="brown" stroke="#FF6600"/>
	<circle cx="385.437116" cy="493.513779" r="2.500000" fill="brown" stroke="#FF6600"/>
</svg>