<svg>

	<text x="60.609493" y="14.639953" fill="black" stroke="black">{+]</text>
	<text x="51.694187" y="132.463649" fill="black" stroke="black">{+]</text>
	<text x="21.709892" y="7.256606" fill="black" stroke="black">{+]</text>
	<text x="18.280065" y="64.625268" fill="black" stroke="black">{+]</text>
	<text x="9.968653" y="57.567031" fill="black" stroke="black">{+]</text>
	<rect x="11.884287" y="455.093448" width="5.000000" height="15.000000" fill="#338000" stroke="gray"/>
	<rect x="33.439643" y="293.028149" width="5.000000" height="15.000000" fill="#338000" stroke="gray"/>
	<rect x="44.214298" y="382.449570" width="5.000000" height="15.000000" fill="#338000" stroke="gray"/>
	<rect x="49.509893" y="323.379650" width="15.000000" height="15.000000" fill="#800080" stroke="gray"/>
	<rect x="44.259696" y="456.684763" width="5.000000" height="15.000000" fill="#338000" stroke="gray"/>
	<rect x="57.889940" y="293.525380" width="15.000000" height="15.000000" fill="#800080" stroke="gray"/>
	<rect x="60.076082" y="324.418813" width="15.000000" height="15.000000" fill="#800080" stroke="gray"/>
	<text x="135.552574" y="165.021298" fill="black" stroke="black">{+]</text>
	<text x="60.993492" y="162.099775" fill="black" stroke="black">{+]</text>
	<text x="83.966829" y="146.861956" fill="black" stroke="black">{+]</text>
	<text x="79.674714" y="110.178392" fill="black" stroke="black">{+]</text>
	<text x="133.963056" y="33.367326" fill="black" stroke="black">{+]</text>
	<text x="116.588578" y="99.082661" fill="black" stroke="black">{+]</text>
	<text x="113.272994" y="94.771572" fill="black" stroke="black">{+]</text>
	<text x="93.806269" y="16.731903" fill="black" stroke="black">{+]</text>
	<text x="115.712683" y="158.138480" fill="black" stroke="black">{+]</text>
	<text x="131.773979" y="175.669548" fill="black" stroke="black">{+]</text>
	<rect x="96.337784" y="300.610341" width="5.000000" height="15.000000" fill="#338000" stroke="gray"/>
	<rect x="79.622155" y="375.421121" width="5.000000" height="15.000000" fill="#338000" stroke="gray"/>
	<rect x="71.542837" y="443.192634" width="15.000000" height="15.000000" fill="#800080" stroke="gray"/>
	<rect x="71.310060" y="258.139601" width="15.000000" height="15.000000" fill="#800080" stroke="gray"/>
	<rect x="76.238867" y="287.558066" width="15.000000" height="15.000000" fill="#800080" stroke="gray"/>
	<rect x="76.133523" y="295.276955" width="15.000000" height="15.000000" fill="#800080" stroke="gray"/>
	<rect x="90.590394" y="302.327764" width="15.000000" height="15.000000" fill="#800080" stroke="gray"/>
	<rect x="85.733160" y="310.488823" width="15.000000" height="15.000000" fill="#800080" stroke="gray"/>
	<rect x="83.360916" y="387.155150" width="15.000000" height="15.000000" fill="#800080" stroke="gray"/>
	<rect x="102.565548" y="281.909874" width="5.000000" height="15.000000" fill="#338000" stroke="gray"/>
	<rect x="100.330018" y="260.144337" width="5.000000" height="15.000000" fill="#338000" stroke="gray"/>
	<rect x="111.701185" y="300.218703" width="15.000000" height="15.000000" fill="#800080" stroke="gray"/>
	<rect x="110.854659" y="454.080089" width="5.000000" height="15.000000" fill="#338000" stroke="gray"/>
	<rect x="104.483033" y="359.380405" width="5.000000" height="15.000000" fill="#338000" stroke="gray"/>
	<rect x="121.293092" y="428.887688" width="5.000000" height="15.000000" fill="#338000" stroke="gray"/>
	<rect x="119.999705" y="365.213994" width="15.000000" height="15.000000" fill="#800080" stroke="gray"/>
	<rect x="120.553902" y="359.213066" width="15.000000" height="15.000000" fill="#800080" stroke="gray"/>
	<rect x="132.972178" y="384.022374" width="5.000000" height="15.000000" fill="#338000" stroke="gray"/>
	<text x="193.521974" y="18.596473" fill="black" stroke="black">{+]</text>
	<text x="160.625872" y="69.607739" fill="black" stroke="black">{+]</text>
	<text x="140.030473" y="41.225701" fill="black" stroke="black">{+]</text>
	<line x1="141.068899" y1="161.372150" x2="160.422145" y2="184.294887" stroke="#000080"/>
	<line x1="141.068899" y1="161.372150" x2="160.422145" y2="184.294887" stroke="#000080"/>
	<text x="170.627915" y="43.418108" fill="black" stroke="black">{+]</text>
	<text x="192.959991" y="66.967924" fill="black" stroke="black">{+]</text>
	<rect x="254.669618" y="16.875625" width="10.000000" height="5.000000" fill="#FFCC00" stroke="gray"/>
	<text x="241.045018" y="134.652382" fill="black" stroke="black">{+]</text>
	<circle cx="227.400594" cy="152.577524" r="2.500000" fill="brown" stroke="#FF6600"/>
	<rect x="296.067976" y="29.902708" width="10.000000" height="5.000000" fill="#FFCC00" stroke="gray"/>
	<rect x="267.677447" y="77.877962" width="10.000000" height="5.000000" fill="#FFCC00" stroke="gray"/>
	<rect x="290.441408" y="116.484367" width="10.000000" height="5.000000" fill="#FFCC00" stroke="gray"/>
	<rect x="413.958762" y="26.843108" width="10.000000" height="5.000000" fill="#FFCC00" stroke="gray"/>
	<rect x="433.276030" y="37.291867" width="10.000000" height="5.000000" fill="#FFCC00" stroke="gray"/>
	<rect x="381.631865" y="71.095941" width="10.000000" height="5.000000" fill="#FFCC00" stroke="gray"/>
	<rect x="338.260982" y="105.085393" width="10.000000" height="5.000000" fill="#FFCC00" stroke="gray"/>
	<rect x="485.173636" y="134.470563" width="10.000000" height="5.000000" fill="#FFCC00" stroke="gray"/>
	<rect x="446.120551" y="115.378597" width="10.000000" height="5.000000" fill="#FFCC00" stroke="gray"/>
	<rect x="445.677633" y="51.286023" width="10.000000" height="5.000000" fill="#FFCC00" stroke="gray"/>
	<rect x="440.442859" y="143.966323" width="10.000000" height="5.000000" fill="#FFCC00" stroke="gray"/>
	<rect x="421.309538" y="144.352676" width="10.000000" height="5.000000" fill="#FFCC00" stroke="gray"/>
	<circle cx="360.706370" cy="142.545734" r="2.500000" fill="brown" stroke="#FF6600"/>
	<circle cx="241.963210" cy="141.934185" r="2.500000" fill="brown" stroke="#FF6600"/>
	<circle cx="335.033697" cy="160.119573" r="2.500000" fill="brown" stroke="#FF6600"/>
	<line x1="403.455133" y1="164.329772" x2="414.964185" y2="192.034315" stroke="#000080"/>
	<text x="182.935030" y="221.211915" fill="black" stroke="black">{+]</text>
	<text x="175.498847" y="172.762769" fill="black" stroke="black">{+]</text>
	<rect x="146.406393" y="317.372171" width="5.000000" height="15.000000" fill="#338000" stroke="gray"/>
	<line x1="137.366666" y1="519.157048" x2="167.082638" y2="523.275423" stroke="#000080"/>
	<rect x="149.794125" y="292.520780" width="15.000000" height="15.000000" fill="#800080" stroke="gray"/>
	<rect x="154.007714" y="251.294424" width="15.000000" height="15.000000" fill="#800080" stroke="gray"/>
	<circle cx="167.451141" cy="220.726899" r="2.500000" fill="brown" stroke="#FF6600"/>
	<circle cx="154.293318" cy="209.828765" r="2.500000" fill="brown" stroke="#FF6600"/>
	<rect x="165.179069" y="279.527760" width="15.000000" height="15.000000" fill="#800080" stroke="gray"/>
	<rect x="159.377778" y="387.113110" width="5.000000" height="15.000000" fill="#338000" stroke="gray"/>
	<rect x="174.056970" y="342.673044" width="5.000000" height="15.000000" fill="#338000" stroke="gray"/>
	<rect x="172.980248" y="385.254653" width="15.000000" height="15.000000" fill="#800080" stroke="gray"/>
	<rect x="170.656583" y="436.975725" width="15.000000" height="15.000000" fill="#800080" stroke="gray"/>
	<circle cx="166.947653" cy="449.001750" r="2.500000" fill="brown" stroke="#FF6600"/>
	<rect x="180.140182" y="392.739402" width="5.000000" height="15.000000" fill="#338000" stroke="gray"/>
	<text x="208.777933" y="175.718749" fill="black" stroke="black">{+]</text>
	<circle cx="184.986802" cy="184.922451" r="2.500000" fill="brown" stroke="#FF6600"/>
	<text x="245.625744" y="165.075037" fill="black" stroke="black">{+]</text>
	<rect x="333.387874" y="195.701471" width="10.000000" height="5.000000" fill="#FFCC00" stroke="gray"/>
	<rect x="316.362032" y="217.303446" width="10.000000" height="5.000000" fill="#FFCC00" stroke="gray"/>
	<rect x="256.963321" y="182.046016" width="10.000000" height="5.000000" fill="#FFCC00" stroke="gray"/>
	<line x1="210.027969" y1="182.171146" x2="239.691865" y2="186.649236" stroke="#000080"/>
	<circle cx="312.468613" cy="201.550571" r="2.500000" fill="brown" stroke="#FF6600"/>
	<circle cx="282.822890" cy="187.535551" r="2.500000" fill="brown" stroke="#FF6600"/>
	<circle cx="275.194326" cy="186.271129" r="2.500000" fill="brown" stroke="#FF6600"/>
	<rect x="432.804361" y="186.923976" width="10.000000" height="5.000000" fill="#FFCC00" stroke="gray"/>
	<line x1="597.713618" y1="190.700944" x2="622.294033" y2="207.899874" stroke="#000080"/>
	<line x1="575.352175" y1="191.552076" x2="588.761751" y2="218.388306" stroke="#000080"/>
	<rect x="366.233493" y="200.474726" width="10.000000" height="5.000000" fill="#FFCC00" stroke="gray"/>
	<rect x="359.680443" y="204.804605" width="10.000000" height="5.000000" fill="#FFCC00" stroke="gray"/>
	<circle cx="340.455266" cy="205.503526" r="2.500000" fill="brown" stroke="#FF6600"/>
	<rect x="421.774293" y="213.550081" width="10.000000" height="5.000000" fill="#FFCC00" stroke="gray"/>
	<rect x="397.575739" y="216.053825" width="10.000000" height="5.000000" fill="#FFCC00" stroke="gray"/>
	<rect x="329.101672" y="232.491211" width="10.000000" height="5.000000" fill="#FFCC00" stroke="gray"/>
	<rect x="302.729479" y="235.611707" width="10.000000" height="5.000000" fill="#FFCC00" stroke="gray"/>
	<rect x="243.001730" y="313.089746" width="5.000000" height="15.000000" fill="#338000" stroke="gray"/>
	<rect x="227.600325" y="363.527152" width="5.000000" height="15.000000" fill="#338000" stroke="gray"/>
	<rect x="212.066708" y="491.555106" width="5.000000" height="15.000000" fill="#338000" stroke="gray"/>
	<rect x="211.319790" y="402.599457" width="5.000000" height="15.000000" fill="#338000" stroke="gray"/>
	<rect x="183.105649" y="456.139753" width="5.000000" height="15.000000" fill="#338000" stroke="gray"/>
	<rect x="183.587471" y="340.209934" width="5.000000" height="15.000000" fill="#338000" stroke="gray"/>
	<rect x="190.348891" y="255.049080" width="15.000000" height="15.000000" fill="#800080" stroke="gray"/>
	<line x1="186.661826" y1="318.984266" x2="214.278486" y2="330.702632" stroke="#000080"/>
	<circle cx="202.547166" cy="331.666303" r="2.500000" fill="brown" stroke="#FF6600"/>
	<rect x="190.534731" y="450.200959" width="15.000000" height="15.000000" fill="#800080" stroke="gray"/>
	<rect x="212.213522" y="308.385074" width="5.000000" height="15.000000" fill="#338000" stroke="gray"/>
	<rect x="224.372015" y="260.458394" width="15.000000" height="15.000000" fill="#800080" stroke="gray"/>
	<rect x="224.869313" y="458.486346" width="15.000000" height="15.000000" fill="#800080" stroke="gray"/>
	<rect x="227.620243" y="287.830753" width="5.000000" height="15.000000" fill="#338000" stroke="gray"/>
	<rect x="240.491929" y="433.511881" width="15.000000" height="15.000000" fill="#800080" stroke="gray"/>
	<line x1="241.871260" y1="492.610260" x2="259.098717" y2="517.170690" stroke="#000080"/>
	<rect x="246.038747" y="327.644862" width="5.000000" height="15.000000" fill="#338000" stroke="gray"/>
	<rect x="243.529170" y="450.992439" width="15.000000" height="15.000000" fill="#800080" stroke="gray"/>
	<rect x="248.286166" y="482.805503" width="15.000000" height="15.000000" fill="#800080" stroke="gray"/>
	<circle cx="256.421765" cy="361.265259" r="2.500000" fill="brown" stroke="#FF6600"/>
	<circle cx="264.631816" cy="332.574535" r="2.500000" fill="brown" stroke="#FF6600"/>
	<circle cx="296.412220" cy="386.669388" r="2.500000" fill="brown" stroke="#FF6600"/>
	<line x1="278.390573" y1="453.991803" x2="303.340018" y2="470.650890" stroke="#000080"/>
	<circle cx="309.065161" cy="540.478608" r="2.500000" fill="brown" stroke="#FF6600"/>
	<circle cx="311.832520" cy="367.407155" r="2.500000" fill="brown" stroke="#FF6600"/>
	<line x1="327.484196" y1="526.838100" x2="354.160924" y2="540.562246" stroke="#000080"/>
	<circle cx="366.461326" cy="227.422056" r="2.500000" fill="brown" stroke="#FF6600"/>
	<rect x="348.395063" y="238.885918" width="10.000000" height="5.000000" fill="#FFCC00" stroke="gray"/>
	<rect x="370.805698" y="244.894507" width="10.000000" height="5.000000" fill="#FFCC00" stroke="gray"/>
	<circle cx="352.984754" cy="524.920093" r="2.500000" fill="brown" stroke="#FF6600"/>
	<circle cx="379.188231" cy="346.976924" r="2.500000" fill="brown" stroke="#FF6600"/>
	<circle cx="371.610747" cy="252.310561" r="2.500000" fill="brown" stroke="#FF6600"/>
	<circle cx="374.594250" cy="512.424334" r="2.500000" fill="brown" stroke="#FF6600"/>
	<line x1="445.095312" y1="293.284171" x2="460.094258" y2="319.265542" stroke="#000080"/>
	<line x1="551.957904" y1="263.787638" x2="577.603500" y2="279.353736" stroke="#000080"/>
	<circle cx="385.437116" cy="493.513779" r="2.500000" fill="brown" stroke="#FF6600"/>
	<circle cx="385.731386" cy="411.864542" r="2.500000" fill="brown" stroke="#FF6600"/>
	<line x1="415.554356" y1="401.437791" x2="434.629714" y2="424.592288" stroke="#000080"/>
	<line x1="502.733364" y1="369.999564" x2="508.429952" y2="399.453747" stroke="#000080"/>
	<line x1="443.520319" y1="469.409191" x2="465.132322" y2="490.215952" stroke="#000080"/>
	<line x1="581.499321" y1="440.531500" x2="604.667522" y2="459.590210" stroke="#000080"/>
	<line x1="464.555263" y1="421.028269" x2="493.581146" y2="428.611020" stroke="#000080"/>
	<line x1="528.669459" y1="434.220566" x2="558.614314" y2="436.038715" stroke="#000080"/>
	<line x1="514.456071" y1="488.800690" x2="528.093623" y2="515.521790" stroke="#000080"/>
	<line x1="533.865343" y1="474.448298" x2="563.787213" y2="476.612008" stroke="#000080"/>
	<line x1="494.184111" y1="453.968585" x2="519.532686" y2="470.013826" stroke="#000080"/>
	<line x1="387.471066" y1="433.702655" x2="409.790655" y2="453.748502" stroke="#000080"/>
	<line x1="598.885748" y1="495.269411" x2="628.530690" y2="499.871304" stroke="#000080"/>
	<line x1="503.213046" y1="514.520932" x2="523.936880" y2="536.212467" stroke="#000080"/>
	<line x1="421.066183" y1="595.209309" x2="444.346730" y2="614.130622" stroke="#000080"/>
</svg>